<svg xmlns="http://www.w3.org/2000/svg" viewBox="0 0 39.5 39.5"><defs><style>.cls-1,.cls-3{fill:#fff;}.cls-1{stroke:#ed2224;stroke-miterlimit:10;stroke-width:3.69px;}.cls-2{fill:#010101;}</style></defs><title>back-card-mechanic-sign</title><g id="Layer_2" data-name="Layer 2"><g id="Layer_1-2" data-name="Layer 1"><circle class="cls-1" cx="19.75" cy="19.75" r="17.91"/><path class="cls-2" d="M29.55,28.4v.19c-.08.19,0,.41-.13.61a1.86,1.86,0,0,1-1.34,1.16.38.38,0,0,0-.17.07h-.57a2.8,2.8,0,0,1-1.66-1c-2-2-4.06-4.06-6.08-6.1-.19-.19-.3-.18-.48,0-1.14,1.16-2.23,2.36-3.35,3.53-.86.89-1.68,1.81-2.58,2.66a1.94,1.94,0,0,1-3.33-1.05v-.63A3.29,3.29,0,0,1,11,26.07c.6-.51,1.13-1.1,1.71-1.65q1.15-1.08,2.29-2.19l2-2c.18-.18.19-.29,0-.49-.78-.83-1.64-1.58-2.42-2.41-.12-.12-.24-.24-.34-.37-.22-.28-.3-.31-.62-.16a3.83,3.83,0,0,0-2.29,3,3.65,3.65,0,0,1-.08.37.37.37,0,0,1-.32.31.45.45,0,0,1-.47-.19,1.32,1.32,0,0,1-.15-.38,5.53,5.53,0,0,1,.22-3.6,6.33,6.33,0,0,1,1-1.69,1.17,1.17,0,0,0,.22-.35,3.29,3.29,0,0,1,1.48-1.74c.1-.06.22-.12.23-.24a2.65,2.65,0,0,1,.84-1.42c.47-.52,1-1,1.48-1.48h.06c1,1,1.95,1.94,2.92,2.9a.28.28,0,0,1,0,.46,15.36,15.36,0,0,1-1.86,1.72,2.32,2.32,0,0,1-.76.38c-.23.06-.25.14-.08.32a9.05,9.05,0,0,0,.74.74c.73.63,1.38,1.34,2.07,2,.28.27.31.28.58,0s.85-.85,1.31-1.24a.45.45,0,0,0,.14-.53,4.5,4.5,0,0,1,2.42-5.35,4.33,4.33,0,0,1,2.25-.4.46.46,0,0,1,.44.3.47.47,0,0,1-.14.52c-.57.58-1.14,1.16-1.73,1.72a.69.69,0,0,0-.22.84,12,12,0,0,1,.37,1.38.48.48,0,0,0,.37.39c.51.14,1,.28,1.53.39a.56.56,0,0,0,.57-.18l1.59-1.59.23-.22a.5.5,0,0,1,.55-.14.52.52,0,0,1,.28.5,4.52,4.52,0,0,1-4,4.76,4.57,4.57,0,0,1-1.69-.16.49.49,0,0,0-.6.21,8,8,0,0,1-.76.8c-.22.23-.22.3,0,.52.82.8,1.62,1.6,2.43,2.4,1,1,2.13,2,3.1,3.12.22.24.49.44.71.67A2.53,2.53,0,0,1,29.55,28.4Z"/><path class="cls-3" d="M29.55,28.4s-.07,0-.07,0a2.31,2.31,0,0,0-.86-1.59l-6.21-6.19c-.43-.43-.43-.43,0-.85a7.67,7.67,0,0,0,.66-.68.61.61,0,0,1,.76-.21,4.25,4.25,0,0,0,4.52-1.43,4.19,4.19,0,0,0,1-3.06c0-.2,0-.4-.22-.49s-.39,0-.53.18l-1.31,1.32c-.19.19-.4.37-.57.58a.33.33,0,0,1-.39.11l-1.77-.44a.33.33,0,0,1-.27-.26c-.16-.62-.34-1.24-.51-1.86a.36.36,0,0,1,.14-.39l1.86-1.86c.15-.15.29-.32.19-.56s-.32-.22-.51-.22a4.42,4.42,0,0,0-4.57,3.72,3.9,3.9,0,0,0,.15,2,.4.4,0,0,1-.12.49c-.49.46-1,.93-1.45,1.41-.19.19-.32.24-.54,0-1-1-1.93-1.93-2.89-2.89-.09-.09-.2-.16-.16-.32s.19-.09.29-.11a2.05,2.05,0,0,0,.85-.46,18.24,18.24,0,0,0,1.74-1.61c.12-.13.12-.2,0-.32Q17.39,11,16.05,9.69c-.09-.09-.21-.15-.19-.31H29.28c.24,0,.27.06.27.28Q29.55,19,29.55,28.4Z"/><path class="cls-3" d="M15.8,9.38c-.07.24-.28.36-.44.52a13,13,0,0,0-1.54,1.72,1,1,0,0,0-.24.64c0,.16-.1.22-.21.28a3.39,3.39,0,0,0-1.52,1.71A9.7,9.7,0,0,1,11,15.52,5.62,5.62,0,0,0,10.45,20l.05.15c.07.19.18.34.41.32s.31-.18.34-.39a3.94,3.94,0,0,1,2.6-3.39c.12,0,.2-.07.3.05.9,1,1.9,1.92,2.84,2.89.09.09.17.19.27.27s.12.17,0,.28l-2.82,2.72L12.5,24.71l-1.73,1.67a2.79,2.79,0,0,0-.84,1.35c0,.06,0,.1-.1.1q0-9.07,0-18.14c0-.29.09-.32.33-.31Z"/><path class="cls-3" d="M9.84,28.46c.09,0,.09.08.1.14a1.85,1.85,0,0,0,3.23.79c1.17-1.13,2.26-2.33,3.38-3.5q1.29-1.35,2.56-2.72c.18-.19.28-.17.45,0q3.28,3.3,6.58,6.59a1.86,1.86,0,0,0,1,.55c.06,0,.16,0,.17.11H10.09c-.22,0-.26-.05-.26-.26C9.85,29.6,9.84,29,9.84,28.46Z"/><path class="cls-3" d="M27.9,30.43c0-.12.11-.11.18-.13a1.88,1.88,0,0,0,1.38-1.6c0-.06,0-.1.09-.11,0,.56,0,1.12,0,1.68,0,.14,0,.17-.16.16Z"/><path class="cls-3" d="M12.63,28a.76.76,0,0,1-.77.81.82.82,0,0,1-.79-.82.77.77,0,0,1,.83-.79A.72.72,0,0,1,12.63,28Z"/></g></g></svg>