<svg xmlns="http://www.w3.org/2000/svg" viewBox="0 0 145.46 120.25"><defs><style>.cls-1{fill:#6bf9fc;}.cls-2,.cls-3{fill:#fff;}.cls-3{stroke:#ed2224;stroke-miterlimit:10;stroke-width:3.69px;}.cls-4{fill:#010101;}</style></defs><title>back-card-mechanic-store-cyan</title><g id="Layer_2" data-name="Layer 2"><g id="Layer_1-2" data-name="Layer 1"><g id="Layer_1-2-2" data-name="Layer 1-2"><path class="cls-1" d="M145.46,54.46V60c-1,4.57-4.24,6.43-8.54,6.41-2.85,0-3.5,1.24-3.49,3.74q.07,19.3,0,38.59c0,2.19.51,3.66,3,4.22,2.67.6,2.52,2.91,2.33,5s-1.7,2.32-3.47,2.32H8.14c-1.55,0-3.1.09-3.39-2s-.6-4.27,1.64-5.11c2.64-.93,2.91-2.77,2.9-5.07,0-12.29-.06-24.58,0-36.87,0-2.72-.56-4.43-3.57-5.28-4-1.11-5.22-3.28-5.37-7.4,0-.9.24-1.85-.35-2.68V53.77c1.13-1,2.54-1,3.91-1,2.75,0,5.52.12,8.26,0A8.07,8.07,0,0,1,20,56.49c3.12,4.46,7.79,4.25,10.57-.46a6,6,0,0,1,6.18-3.26c3,.12,6,0,9,0,2.44,0,4.12.87,5,3.3,1,2.74,2.9,4.79,6.07,4.81s5-2.06,6.15-4.73a5,5,0,0,1,5.35-3.4c3.1.09,6.2,0,9.3,0,2.31,0,4,.87,4.81,3.13A10.19,10.19,0,0,0,84,58.6c3.52,4.55,9.19,4,11-1.42,1.21-3.59,3.26-4.58,6.65-4.41,3.09.15,6.2,0,9.3.06,2.15,0,3.29,1,3.74,3.18.79,3.93,2.92,6.08,5.79,6.3s5.79-1.77,6.94-5.62c.9-3,2.56-4,5.5-3.92s5.74,0,8.61,0C143,52.85,144.62,52.84,145.46,54.46Z"/><path class="cls-2" d="M71.51,113.73c-15.28,0-30.55-.06-45.83.06-2.46,0-3-.66-3-3q.19-18.43,0-36.87c0-2.47.67-3,3-3q46,.13,92,0c2.46,0,3,.65,3,3q-.19,18.43,0,36.87c0,2.47-.67,3-3,3C102.29,113.68,86.9,113.73,71.51,113.73Z"/><path class="cls-1" d="M71.72,28.95c-18.94,0-37.89-.05-56.83.06-2.5,0-3.54-.47-3.17-3.14.5-3.67-1.23-7.8,2.48-10.8a7.24,7.24,0,0,1,4.83-2q52.7.06,105.39,0a7.31,7.31,0,0,1,7.27,7.26c.15,8.58.15,8.58-8.3,8.59Z"/><path class="cls-1" d="M41.31,51.7H34.78c-1.29,0-2-.25-1.54-1.73,1.58-5.4,3.26-10.78,4.61-16.24.46-1.85,1.35-2.07,2.85-2,3.67,0,7.34.13,11,0,2.35-.1,2.32.92,1.87,2.68-1.36,5.34-2.72,10.71-3.85,16.11-.3,1.42-1,1.22-1.88,1.23Z"/><path class="cls-1" d="M104.42,51.7c-8.47,0-8.45,0-10-8.63-.56-3.18-1.1-6.36-1.89-9.49-.45-1.77.27-1.91,1.66-1.9,3.79,0,7.58.12,11.36,0,1.84-.08,2.3,1,2.64,2.33,1.18,4.61,2.24,9.25,3.53,13.83,1.09,3.89,1.2,3.86-2.51,3.87Z"/><path class="cls-1" d="M9.86,51.7c-2.06,0-4.14-.12-6.19,0-2.4.17-2.92-.88-1.9-2.78,2.8-5.26,5.74-10.46,8.53-15.72.47-.89.87-1.52,1.94-1.52H22.9c1.42,0,1.39.77,1.08,1.79-1.7,5.7-4.12,11.16-5.42,17-.27,1.2-1.43,1.25-2.52,1.23C14,51.67,11.93,51.7,9.86,51.7Z"/><path class="cls-1" d="M65.18,51.7c.36-6,.91-11.46.92-17,0-2.67.78-3.29,3.25-3.09a77.17,77.17,0,0,0,8.23,0c1.77,0,2.36.72,2.45,2.45A124.32,124.32,0,0,0,81.35,49.5c.2,1.14.24,2.21-1.61,2.16C74.83,51.62,69.93,51.7,65.18,51.7Z"/><path class="cls-1" d="M135.63,51.7c-6.36,1.81-9.36-1.16-10.76-7.12a63.51,63.51,0,0,0-3.75-10.51c-.85-2-.42-2.47,1.51-2.33a1.39,1.39,0,0,0,.34,0c6.6-1.2,11.24.78,13.91,7.42,1.42,3.52,4,6.56,6.2,9.77.5.75,1.45,1.37.87,2.34s-1.65.4-2.49.43C139.52,51.76,137.57,51.7,135.63,51.7Z"/></g><circle class="cls-3" cx="74.15" cy="31.36" r="29.52"/><path class="cls-4" d="M90.3,45.62v.31c-.13.31,0,.68-.21,1a3.07,3.07,0,0,1-2.21,1.91.63.63,0,0,0-.28.12h-.94a4.61,4.61,0,0,1-2.74-1.65c-3.3-3.3-6.69-6.69-10-10.05-.31-.31-.49-.3-.79,0-1.88,1.91-3.67,3.89-5.52,5.82-1.42,1.47-2.77,3-4.25,4.38a3.2,3.2,0,0,1-5.49-1.73v-1a5.42,5.42,0,0,1,1.88-2.92c1-.84,1.86-1.81,2.82-2.72q1.9-1.78,3.77-3.61l3.3-3.3c.3-.3.31-.48,0-.81-1.29-1.37-2.7-2.6-4-4a6.46,6.46,0,0,1-.56-.61c-.36-.46-.49-.51-1-.26a6.31,6.31,0,0,0-3.77,4.94,6,6,0,0,1-.13.61.61.61,0,0,1-.53.51.74.74,0,0,1-.77-.31,2.18,2.18,0,0,1-.25-.63A9.11,9.11,0,0,1,59,25.69a10.43,10.43,0,0,1,1.65-2.79,1.93,1.93,0,0,0,.36-.58,5.42,5.42,0,0,1,2.44-2.87c.16-.1.36-.2.38-.4a4.37,4.37,0,0,1,1.38-2.34c.77-.86,1.65-1.65,2.44-2.44h.1c1.65,1.65,3.21,3.2,4.81,4.78a.46.46,0,0,1,0,.76,25.31,25.31,0,0,1-3.07,2.83,3.82,3.82,0,0,1-1.25.63c-.38.1-.41.23-.13.53A14.91,14.91,0,0,0,69.29,25c1.2,1,2.27,2.21,3.41,3.3.46.44.51.46,1,0s1.4-1.4,2.16-2a.74.74,0,0,0,.23-.87,7.42,7.42,0,0,1,4-8.82,7.14,7.14,0,0,1,3.71-.66.76.76,0,0,1,.73.49.77.77,0,0,1-.23.86c-.94,1-1.88,1.91-2.85,2.83A1.14,1.14,0,0,0,81,21.51a19.78,19.78,0,0,1,.61,2.27.79.79,0,0,0,.61.64c.84.23,1.65.46,2.52.64a.92.92,0,0,0,.94-.3l2.62-2.62.38-.36a.82.82,0,0,1,.91-.23.86.86,0,0,1,.46.82,7.45,7.45,0,0,1-6.59,7.84A7.53,7.53,0,0,1,80.7,30a.81.81,0,0,0-1,.35,13.18,13.18,0,0,1-1.25,1.32c-.36.38-.36.49,0,.86,1.35,1.32,2.67,2.64,4,4,1.65,1.65,3.51,3.3,5.11,5.14.36.4.81.73,1.17,1.1A4.17,4.17,0,0,1,90.3,45.62Z"/></g></g></svg>