<svg xmlns="http://www.w3.org/2000/svg" viewBox="0 0 323.39 109.21"><defs><style>.cls-1{fill:#010101;}.cls-2{fill:#483d8b;}.cls-3{fill:#483d8b;}.cls-4{fill:#483d8b;}</style></defs><title>back-card-bg</title><g id="Layer_2" data-name="Layer 2"><g id="Layer_1-2" data-name="Layer 1"><path class="cls-1" d="M323.16,11.11c0,31.5-.05,63,.08,94.5,0,3-.6,3.59-3.58,3.58q-106.25-.16-212.5-.08c-1.93-2.61-.29-5.49-.54-8.24C105,82.94,94.24,71.71,79.56,63.26c-3.9-2.25-8.21-3.63-12.27-5.55a32.81,32.81,0,0,1-4.82-2.59C56.3,50.83,56,48,61.22,42.29c9.06-6.51,18.86-11.79,28.71-17,5.75-2.91,9.87-7.85,14.63-12,3-2.57,5.7-4.43,9.82-3.06,3.82,1.28,6.24-1.55,8.79-3.6,5.07-4.07,5.29-4.16,10.82-.5,3.33,2.2,6.83,4.21,9.82,6.88,2.23,2,4.33,2,6.78.48s4.86-2.94,7.1-4.66c3.23-2.46,6.57-3.08,10.26-1.3a11,11,0,0,0,9.62.31,13.56,13.56,0,0,1,9.33-.54c3.78,1.16,6.54.34,9.43-2.43C201.41.08,201.61.26,207.8,3.76c1.2.68,2.41,1.41,3.73.62,3-1.82,5.41-.27,7.8,1.35,3.45,2.34,7.13,4.36,10.25,7.14,2.38,2.12,4.58,2.35,7.18.58a43.81,43.81,0,0,0,4.19-2.71c4.73-4.09,9.51-4.79,15.63-2.5a19.55,19.55,0,0,0,13.11-.12A17.59,17.59,0,0,1,281,7.57,6.68,6.68,0,0,0,288.6,5.5c2.77-3.11,5.77-3.4,9.22-.82,3.86,2.89,8.24,5.1,11.87,8.31,2.45,2.16,4.58,2,7.2.43C318.79,12.28,320.47,10.22,323.16,11.11Z"/><path class="cls-1" d="M100.16,109.11h-88c-.5-2.86,1.81-4.14,3.39-5.67A73.69,73.69,0,0,0,27.47,88.71C32.73,80,34,71.15,28.76,61.77c-5.08-9.15-3.3-15.89,5.83-21C49.37,32.42,65.47,27.54,82,24a8.27,8.27,0,0,1,5.85.6c1.16,2.81-1.55,2.71-2.8,3.47-7.94,4.8-16.37,8.79-23.72,14.55a11.06,11.06,0,0,0-2.65,2.95c-2.62,3.79-2.41,5.6,1.28,8.35s8,4,12,5.89c8.23,3.79,15.89,8.33,21.27,15.94a45,45,0,0,1,8.12,30.16A4.78,4.78,0,0,1,100.16,109.11Z"/><path class="cls-2" d="M88.19,25.11c-15.09.44-28.74,6.21-42.49,11.52A58.14,58.14,0,0,0,33.48,42.9c-6.14,4.24-8.61,9.72-4.85,15.74C38.88,75,31.32,87.54,20.91,99.71c-2.78,3.25-5.83,6.27-8.75,9.4h-10c.08-3,2.79-3.91,4.57-5.45,6.33-5.45,12.3-11.21,17.18-18,5.26-7.37,6.72-14.84,2.16-23.33-4.36-8.11-2.77-14.44,4.2-20.46,6.18-5.34,13.8-8,21.24-10.9a126.38,126.38,0,0,1,22.08-6.6,22.24,22.24,0,0,1-8.6-5.6c-3.67-3.45-7.31-6.17-12.81-4.58-1.78.52-3.55-.58-5-1.84s-2.64-2.54-4-3.82C37,2.43,36.92,2.36,30.39,8.24c-2.33,2.1-4.67,3-7.71,2.07a18.65,18.65,0,0,0-12.25.5c-4,1.43-7.54.82-10.27-2.7,0-8,0-8,8-8q155,0,310-.11c4.23,0,5.77.86,5.06,5.12a36.53,36.53,0,0,0-.06,6c-7.23,6.88-13.8,5.21-20-1.5A13.81,13.81,0,0,0,300.63,8c-6.95-4.71-7.13-4.92-13.2.53-2.61,2.34-4.83.75-6.87.21a16.09,16.09,0,0,0-9.67.25c-5.9,1.92-12,2.29-17.74-.57-3-1.49-5.45-1.18-8.1.95s-5.92,3.68-8.64,5.82c-2.37,1.86-4.37,1.8-6.32-.23-3.93-4.08-9.14-6.36-13.57-9.75-.76-.58-2.05-2-3-.7-3.56,4.61-6,1-8.14-1.25s-3.68-1.89-5.44.23c-.63.76-1.56,1.27-2.19,2-3.19,3.85-6.81,5.11-11.64,2.84-2.63-1.23-5.58-.62-8.18.73a9.87,9.87,0,0,1-10.27-.35c-3.29-2-6-1.45-8.91.9-2.69,2.17-6.08,3.51-8.65,5.79s-4.26,1.14-5.89-.48c-4-4-9.2-6.29-13.56-9.76-1.69-1.35-3.11-1.17-4.66.53s-3.67,2.89-5.27,4.57c-1.88,2-3.85,2.43-6.23,1.25-3.39-1.68-5.75-.15-8.37,2-5.17,4.32-9.31,10-15.83,12.58C89,26.83,88.69,25.82,88.19,25.11Z"/><path class="cls-1" d="M.16,8.11a12.4,12.4,0,0,0,13,.54,5.88,5.88,0,0,1,5.29-.52c6.54,3.12,11.26.41,15.31-4.54,2-2.44,3.68-2.4,5.78-.05,1.65,1.85,3.86,3.19,5.52,5,3.21,3.53,6.47,6.1,11.63,3.67,2-1,3.61.53,5.17,1.94,4.46,4,8.27,9.17,16.31,9.31-4.1,2.52-7.71,2.64-11,3.58-11.14,3.18-22,7.15-32.05,12.86C24.1,46.15,22.39,52.6,28.36,63.66,31.93,70.28,30.71,76.8,27.11,83c-6.22,10.69-15.64,18.36-24.94,26.12-3.09.61-2-1.73-2-3-.05-15.17,0-30.33,0-45.5Z"/><path class="cls-3" d="M100.16,109.11c.89-12.71-1-24.61-9.59-34.76C84.4,67.08,76.28,62.9,67.78,59.23c-2.7-1.17-5.48-2.06-7.93-3.89-5.59-4.19-5.89-6.41-1-11.38.68-.69,1.48-1.27,2.22-1.89,1-.46,1.1.11,1.05.88-5.13,5.79-4.82,8.36,2.15,11.9,8.06,4.09,16.65,7.1,24.06,12.48,11.75,8.54,18.59,19.81,19.51,34.41.15,2.43-.44,4.92-.68,7.38Z"/><path class="cls-4" d="M62.12,42.94l-1.05-.88c6.89-5.89,15-9.76,22.83-14.16,1.47-.83,3.45-1,4.29-2.8l2.06,1.05C81,32,71,36.57,62.12,42.94Z"/></g></g></svg>