<svg id="Layer_1" data-name="Layer 1" xmlns="http://www.w3.org/2000/svg" viewBox="0 0 323.39 109.21"><defs><style>.cls-1{fill:#010101;}.cls-2,.cls-5{fill:#fff;}.cls-3{fill:#fdfeff;}.cls-4{fill:#e4e4e4;}.cls-5{stroke:#ed2224;stroke-miterlimit:10;stroke-width:3.69px;}</style></defs><title>back-card-bg</title><path class="cls-1" d="M326.6,16.62c0,31.5-.05,63,.08,94.5,0,3-.6,3.59-3.58,3.58q-106.25-.16-212.5-.08c-1.93-2.61-.29-5.49-.54-8.24C108.43,88.44,97.68,77.22,83,68.77c-3.9-2.25-8.21-3.63-12.27-5.55a32.81,32.81,0,0,1-4.82-2.59c-6.17-4.3-6.44-7.09-1.25-12.83,9.06-6.51,18.86-11.79,28.71-17,5.75-2.91,9.87-7.85,14.63-12,3-2.57,5.7-4.43,9.82-3.06,3.82,1.28,6.24-1.55,8.79-3.6,5.07-4.07,5.29-4.16,10.82-.5,3.33,2.2,6.83,4.21,9.82,6.88,2.23,2,4.33,2,6.78.48s4.86-2.94,7.1-4.66c3.23-2.46,6.57-3.08,10.26-1.3a11,11,0,0,0,9.62.31,13.56,13.56,0,0,1,9.33-.54c3.78,1.16,6.54.34,9.43-2.43,5.07-4.86,5.27-4.68,11.46-1.17,1.2.68,2.41,1.41,3.73.62,3-1.82,5.41-.27,7.8,1.35,3.45,2.34,7.13,4.36,10.25,7.14,2.38,2.12,4.58,2.35,7.18.58a43.81,43.81,0,0,0,4.19-2.71c4.73-4.09,9.51-4.79,15.63-2.5a19.55,19.55,0,0,0,13.11-.12,17.59,17.59,0,0,1,11.29-.55A6.68,6.68,0,0,0,292,11c2.77-3.11,5.77-3.4,9.22-.82,3.86,2.89,8.24,5.1,11.87,8.31,2.45,2.16,4.58,2,7.2.43C322.23,17.79,323.92,15.73,326.6,16.62Z" transform="translate(-3.44 -5.51)"/><path class="cls-1" d="M103.6,114.62h-88c-.5-2.86,1.81-4.14,3.39-5.67A73.69,73.69,0,0,0,30.91,94.22c5.27-8.7,6.5-17.56,1.29-26.94-5.08-9.15-3.3-15.89,5.83-21C52.81,37.92,68.91,33,85.42,29.52a8.27,8.27,0,0,1,5.85.6c1.16,2.81-1.55,2.71-2.8,3.47-7.94,4.8-16.37,8.79-23.72,14.55a11.06,11.06,0,0,0-2.65,2.95c-2.62,3.79-2.41,5.6,1.28,8.35s8,4,12,5.89c8.23,3.79,15.89,8.33,21.27,15.94a45,45,0,0,1,8.12,30.16A4.78,4.78,0,0,1,103.6,114.62Z" transform="translate(-3.44 -5.51)"/><path class="cls-2" d="M91.63,30.61C76.54,31,62.89,36.82,49.13,42.13a58.14,58.14,0,0,0-12.21,6.28c-6.14,4.24-8.61,9.72-4.85,15.74,10.24,16.39,2.68,28.9-7.72,41.07-2.78,3.25-5.83,6.27-8.75,9.4H5.6c.08-3,2.79-3.91,4.57-5.45,6.33-5.45,12.3-11.21,17.18-18,5.26-7.37,6.72-14.84,2.16-23.33-4.36-8.11-2.77-14.44,4.2-20.46C39.9,42,47.51,39.3,55,36.43A126.38,126.38,0,0,1,77,29.84a22.24,22.24,0,0,1-8.6-5.6c-3.67-3.45-7.31-6.17-12.81-4.58-1.78.52-3.55-.58-5-1.84S48,15.28,46.68,14c-6.25-6.07-6.32-6.14-12.85-.26-2.33,2.1-4.67,3-7.71,2.07a18.65,18.65,0,0,0-12.25.5c-4,1.43-7.54.82-10.27-2.7,0-8,0-8,8-8q155,0,310-.11c4.23,0,5.77.86,5.06,5.12a36.53,36.53,0,0,0-.06,6c-7.23,6.88-13.8,5.21-20-1.5a13.81,13.81,0,0,0-2.49-1.61c-6.95-4.71-7.13-4.92-13.2.53-2.61,2.34-4.83.75-6.87.21a16.09,16.09,0,0,0-9.67.25c-5.9,1.92-12,2.29-17.74-.57-3-1.49-5.45-1.18-8.1.95s-5.92,3.68-8.64,5.82c-2.37,1.86-4.37,1.8-6.32-.23-3.93-4.08-9.14-6.36-13.57-9.75-.76-.58-2.05-2-3-.7-3.56,4.61-6,1-8.14-1.25s-3.68-1.89-5.44.23c-.63.76-1.56,1.27-2.19,2-3.19,3.85-6.81,5.11-11.64,2.84-2.63-1.23-5.58-.62-8.18.73a9.87,9.87,0,0,1-10.27-.35c-3.29-2-6-1.45-8.91.9-2.69,2.17-6.08,3.51-8.65,5.79s-4.26,1.14-5.89-.48c-4-4-9.2-6.29-13.56-9.76-1.69-1.35-3.11-1.17-4.66.53s-3.67,2.89-5.27,4.57c-1.88,2-3.85,2.43-6.23,1.25-3.39-1.68-5.75-.15-8.37,2-5.17,4.32-9.31,10-15.83,12.58C92.48,32.33,92.13,31.32,91.63,30.61Z" transform="translate(-3.44 -5.51)"/><path class="cls-1" d="M3.6,13.62a12.4,12.4,0,0,0,13,.54,5.88,5.88,0,0,1,5.29-.52c6.54,3.12,11.26.41,15.31-4.54,2-2.44,3.68-2.4,5.78-.05,1.65,1.85,3.86,3.19,5.52,5,3.21,3.53,6.47,6.1,11.63,3.67,2-1,3.61.53,5.17,1.94,4.46,4,8.27,9.17,16.31,9.31-4.1,2.52-7.71,2.64-11,3.58-11.14,3.18-22,7.15-32.05,12.86C27.54,51.66,25.83,58.1,31.8,69.17c3.57,6.62,2.36,13.14-1.25,19.33C24.33,99.19,14.91,106.86,5.6,114.62c-3.09.61-2-1.73-2-3-.05-15.17,0-30.33,0-45.5Z" transform="translate(-3.44 -5.51)"/><path class="cls-3" d="M103.6,114.62c.89-12.71-1-24.61-9.59-34.76-6.17-7.27-14.29-11.45-22.8-15.12-2.7-1.17-5.48-2.06-7.93-3.89-5.59-4.19-5.89-6.41-1-11.38.68-.69,1.48-1.27,2.22-1.89,1-.46,1.1.11,1.05.88-5.13,5.79-4.82,8.36,2.15,11.9,8.06,4.09,16.65,7.1,24.06,12.48,11.75,8.54,18.59,19.81,19.51,34.41.15,2.43-.44,4.92-.68,7.38Z" transform="translate(-3.44 -5.51)"/><path class="cls-4" d="M65.56,48.45l-1.05-.88c6.89-5.89,15-9.76,22.83-14.16,1.47-.83,3.45-1,4.29-2.8l2.06,1.05C84.46,37.5,74.47,42.07,65.56,48.45Z" transform="translate(-3.44 -5.51)"/><path class="cls-2" d="M211.65,67.32v3.46c-.64,2.86-2.66,4-5.35,4-1.78,0-2.2.78-2.19,2.35q0,12.09,0,24.19c0,1.37.32,2.3,1.87,2.65s1.58,1.82,1.46,3.15-1.07,1.46-2.17,1.46q-39.85,0-79.7,0c-1,0-1.94.05-2.13-1.23s-.38-2.68,1-3.2c1.67-.62,1.83-1.78,1.82-3.22,0-7.7,0-15.41,0-23.11,0-1.71-.35-2.78-2.24-3.31-2.49-.7-3.27-2.06-3.37-4.64,0-.56.15-1.16-.22-1.68v-1.3a3.37,3.37,0,0,1,2.45-.6c1.73,0,3.46.07,5.18,0A5.06,5.06,0,0,1,133,68.6c2,2.8,4.88,2.66,6.63-.29a3.78,3.78,0,0,1,3.87-2c1.87.08,3.74,0,5.61,0a3,3,0,0,1,3.16,2.07c.65,1.72,1.82,3,3.8,3s3.16-1.29,3.86-3a3.15,3.15,0,0,1,3.35-2.13c1.94.05,3.89,0,5.83,0a2.86,2.86,0,0,1,3,2,6.39,6.39,0,0,0,1,1.67c2.21,2.85,5.76,2.5,6.91-.89.76-2.25,2-2.87,4.17-2.77,1.94.1,3.88,0,5.83,0a2.14,2.14,0,0,1,2.34,2c.49,2.47,1.83,3.81,3.63,3.95s3.63-1.11,4.35-3.52a3,3,0,0,1,3.45-2.45c1.8.08,3.6,0,5.4,0C210.16,66.31,211.13,66.31,211.65,67.32Z" transform="translate(-3.44 -5.51)"/><path class="cls-1" d="M211.65,67.32c-3.23-.93-6.53-.23-9.79-.41-.83,0-.51.67-.58,1.1-.4,2.52-2.45,4.78-4.48,4.93a4.56,4.56,0,0,1-5-4.52c0-1.2-.27-1.61-1.52-1.56-2.51.1-5,0-7.55,0-.92,0-1.62,0-1.8,1.26-.37,2.64-2.1,4.3-4.3,4.36a5.48,5.48,0,0,1-5.11-4.2c-.23-1.3-.83-1.44-1.87-1.43-2.37,0-4.75.08-7.12,0-1.17-.05-1.57.46-1.9,1.44-.86,2.59-2.45,3.83-4.68,3.78s-3.68-1.44-4.35-4.1c-.23-.92-.73-1.09-1.52-1.09-2.73,0-5.47,0-8.2,0-.81,0-.92.33-1.22,1-.74,1.71-1.88,3.14-4,3.33-2.32.21-3.77-1-4.64-3a2.25,2.25,0,0,0-2.51-1.39c-3,.06-6,0-9.06,0,0-8.2,0-16.39,0-24.59,0-1,.1-1.37,1.28-1.37q44.33.06,88.65,0c1.18,0,1.28.39,1.27,1.37C211.64,50.64,211.65,59,211.65,67.32Z" transform="translate(-3.44 -5.51)"/><path class="cls-1" d="M120.49,68.18c.35.06.4.31.43.62.34,4,1,4.8,5.21,5.4.87.12.85.52.85,1.11,0,9.35,0,18.7,0,28.05,0,1.3-.73,1.2-1.51,1.1-2.22-.3-1.36,1.34-1.55,2.35-.27,1.47.5,1.58,1.7,1.57q39.81,0,79.63,0c1.59,0,1.74-.62,1.65-1.86s.3-2.44-1.62-2.07c-1.48.29-1.91-.27-1.9-1.81.08-9.06,0-18.13,0-27.19,0-1.24-.15-1.86,1.69-1.36,2.86.77,5.08-.77,6.52-3.33,0,12.17,0,24.34,0,36.51,0,1.29-.26,1.55-1.55,1.55q-44.07-.07-88.14,0c-1.29,0-1.55-.26-1.55-1.55C120.52,94.25,120.49,81.22,120.49,68.18Z" transform="translate(-3.44 -5.51)"/><path class="cls-1" d="M165.3,104.47c-9.58,0-19.15,0-28.72,0-1.54,0-1.87-.41-1.86-1.9q.12-11.55,0-23.11c0-1.55.42-1.86,1.9-1.85q28.83.08,57.67,0c1.54,0,1.87.41,1.86,1.9q-.12,11.55,0,23.11c0,1.55-.42,1.87-1.9,1.85C184.59,104.44,174.95,104.47,165.3,104.47Z" transform="translate(-3.44 -5.51)"/><path class="cls-2" d="M165.43,51.33c-11.87,0-23.75,0-35.62,0-1.57,0-2.22-.29-2-2,.32-2.31-.76-4.89,1.56-6.78a4.54,4.54,0,0,1,3-1.25q33,0,66.06,0A4.58,4.58,0,0,1,203,46c.1,5.38.1,5.38-5.2,5.38Z" transform="translate(-3.44 -5.51)"/><path class="cls-2" d="M146.37,65.59c-1.36,0-2.73,0-4.09,0-.81,0-1.24-.16-1-1.08,1-3.39,2-6.76,2.89-10.18.29-1.16.85-1.3,1.79-1.29,2.3,0,4.6.08,6.89,0,1.47-.07,1.45.58,1.17,1.68-.85,3.36-1.7,6.72-2.41,10.11-.19.89-.64.76-1.18.77C149.1,65.6,147.73,65.59,146.37,65.59Z" transform="translate(-3.44 -5.51)"/><path class="cls-2" d="M185.93,65.59c-5.31,0-5.3,0-6.25-5.41-.35-2-.69-4-1.18-5.95-.28-1.11.17-1.2,1-1.19,2.37,0,4.75.08,7.12,0,1.16,0,1.44.62,1.66,1.46.74,2.89,1.4,5.8,2.21,8.67.69,2.44.76,2.42-1.57,2.43Z" transform="translate(-3.44 -5.51)"/><path class="cls-2" d="M131.6,53.06c4.27,0,4.23,0,2.75,4.22-.82,2.35-1.55,4.73-2.15,7.14-.26,1-.8,1.19-1.66,1.18-2.66,0-5.32-.06-8,0-1.6,0-1.45-.83-1-1.74,1.62-3.13,3.36-6.2,5-9.35A2.35,2.35,0,0,1,129.23,53,19.15,19.15,0,0,0,131.6,53.06Z" transform="translate(-3.44 -5.51)"/><path class="cls-2" d="M161.33,65.59c.22-3.74.57-7.18.58-10.63,0-1.67.49-2.06,2-1.94a48.38,48.38,0,0,0,5.16,0c1.11,0,1.48.45,1.53,1.53a77.93,77.93,0,0,0,.83,9.68c.13.72.15,1.38-1,1.36C167.38,65.54,164.31,65.59,161.33,65.59Z" transform="translate(-3.44 -5.51)"/><path class="cls-2" d="M205.49,65.59c-4,1.14-5.86-.73-6.74-4.46a39.82,39.82,0,0,0-2.35-6.61c-.53-1.23-.26-1.55.94-1.46a.87.87,0,0,0,.21,0c4.14-.75,7,.49,8.72,4.65.89,2.21,2.54,4.11,3.88,6.12.31.47.91.86.55,1.47s-1,.25-1.56.27C207.93,65.63,206.71,65.59,205.49,65.59Z" transform="translate(-3.44 -5.51)"/><path class="cls-2" d="M318.18,67.34V70.8c-.64,2.86-2.66,4-5.35,4-1.78,0-2.2.78-2.19,2.35q0,12.09,0,24.19c0,1.37.32,2.3,1.87,2.65s1.58,1.82,1.46,3.15-1.07,1.46-2.17,1.46q-39.85,0-79.7,0c-1,0-1.94.05-2.13-1.23s-.38-2.68,1-3.2c1.67-.62,1.83-1.78,1.82-3.22,0-7.7,0-15.41,0-23.11,0-1.71-.35-2.78-2.24-3.31-2.49-.7-3.27-2.06-3.37-4.64,0-.56.15-1.16-.22-1.68v-1.3a3.37,3.37,0,0,1,2.45-.6c1.73,0,3.46.07,5.18,0a5.06,5.06,0,0,1,4.93,2.34c2,2.8,4.88,2.66,6.63-.29a3.78,3.78,0,0,1,3.87-2c1.87.08,3.74,0,5.61,0a3,3,0,0,1,3.16,2.07c.65,1.72,1.82,3,3.8,3s3.16-1.29,3.86-3a3.15,3.15,0,0,1,3.35-2.13c1.94.05,3.89,0,5.83,0a2.86,2.86,0,0,1,3,2,6.39,6.39,0,0,0,1,1.67c2.21,2.85,5.76,2.5,6.91-.89.76-2.25,2-2.87,4.17-2.77,1.94.1,3.88,0,5.83,0a2.14,2.14,0,0,1,2.34,2c.49,2.47,1.83,3.81,3.63,3.95s3.63-1.11,4.35-3.52a3,3,0,0,1,3.45-2.45c1.8.08,3.6,0,5.4,0C316.68,66.34,317.65,66.33,318.18,67.34Z" transform="translate(-3.44 -5.51)"/><path class="cls-1" d="M318.18,67.34c-3.23-.93-6.53-.23-9.79-.41-.83,0-.51.67-.58,1.1-.4,2.52-2.45,4.78-4.48,4.93a4.56,4.56,0,0,1-5-4.52c0-1.2-.27-1.61-1.52-1.56-2.51.1-5,0-7.55,0-.92,0-1.62,0-1.8,1.26-.37,2.64-2.1,4.3-4.3,4.36a5.48,5.48,0,0,1-5.11-4.2c-.23-1.3-.83-1.44-1.87-1.43-2.37,0-4.75.08-7.12,0-1.17-.05-1.57.46-1.9,1.44-.86,2.59-2.45,3.83-4.68,3.78s-3.68-1.44-4.35-4.1c-.23-.92-.73-1.09-1.52-1.09-2.73,0-5.47,0-8.2,0-.81,0-.92.33-1.22,1-.74,1.71-1.88,3.14-4,3.33-2.32.21-3.77-1-4.64-3a2.25,2.25,0,0,0-2.51-1.39c-3,.06-6,0-9.06,0,0-8.2,0-16.39,0-24.59,0-1,.1-1.37,1.28-1.37q44.33.06,88.65,0c1.18,0,1.28.39,1.27,1.37C318.16,50.66,318.18,59,318.18,67.34Z" transform="translate(-3.44 -5.51)"/><path class="cls-1" d="M227,68.21c.35.06.4.31.43.62.34,4,1,4.8,5.21,5.4.87.12.85.52.85,1.11,0,9.35,0,18.7,0,28.05,0,1.3-.73,1.2-1.51,1.1-2.22-.3-1.36,1.34-1.55,2.35-.27,1.47.5,1.58,1.7,1.57q39.81,0,79.63,0c1.59,0,1.74-.62,1.65-1.86s.3-2.44-1.62-2.07c-1.48.29-1.91-.27-1.9-1.81.08-9.06,0-18.13,0-27.19,0-1.24-.15-1.86,1.69-1.36,2.86.77,5.08-.77,6.52-3.33,0,12.17,0,24.34,0,36.51,0,1.29-.26,1.55-1.55,1.55q-44.07-.07-88.14,0c-1.29,0-1.55-.26-1.55-1.55C227,94.27,227,81.24,227,68.21Z" transform="translate(-3.44 -5.51)"/><path class="cls-1" d="M271.82,104.5c-9.58,0-19.15,0-28.72,0-1.54,0-1.87-.41-1.86-1.9q.12-11.55,0-23.11c0-1.55.42-1.86,1.9-1.85q28.83.08,57.67,0c1.54,0,1.87.41,1.86,1.9q-.12,11.55,0,23.11c0,1.55-.42,1.87-1.9,1.85C291.11,104.46,281.47,104.5,271.82,104.5Z" transform="translate(-3.44 -5.51)"/><path class="cls-2" d="M271.95,51.36c-11.87,0-23.75,0-35.62,0-1.57,0-2.22-.29-2-2,.32-2.31-.76-4.89,1.56-6.78a4.54,4.54,0,0,1,3-1.25q33,0,66.06,0A4.58,4.58,0,0,1,309.54,46c.1,5.38.1,5.38-5.2,5.38Z" transform="translate(-3.44 -5.51)"/><path class="cls-2" d="M252.89,65.62c-1.36,0-2.73,0-4.09,0-.81,0-1.24-.16-1-1.08,1-3.39,2-6.76,2.89-10.18.29-1.16.85-1.3,1.79-1.29,2.3,0,4.6.08,6.89,0,1.47-.07,1.45.58,1.17,1.68-.85,3.36-1.7,6.72-2.41,10.11-.19.89-.64.76-1.18.77C255.62,65.62,254.25,65.62,252.89,65.62Z" transform="translate(-3.44 -5.51)"/><path class="cls-2" d="M292.45,65.62c-5.31,0-5.3,0-6.25-5.41-.35-2-.69-4-1.18-5.95-.28-1.11.17-1.2,1-1.19,2.37,0,4.75.08,7.12,0,1.16,0,1.44.62,1.66,1.46.74,2.89,1.4,5.8,2.21,8.67.69,2.44.76,2.42-1.57,2.43Z" transform="translate(-3.44 -5.51)"/><path class="cls-2" d="M238.12,53.08c4.27,0,4.23,0,2.75,4.22-.82,2.35-1.55,4.73-2.15,7.14-.26,1-.8,1.19-1.66,1.18-2.66,0-5.32-.06-8,0-1.6,0-1.45-.83-1-1.74,1.62-3.13,3.36-6.2,5-9.35a2.35,2.35,0,0,1,2.68-1.48A19.15,19.15,0,0,0,238.12,53.08Z" transform="translate(-3.44 -5.51)"/><path class="cls-2" d="M267.85,65.62c.22-3.74.57-7.18.58-10.63,0-1.67.49-2.06,2-1.94a48.38,48.38,0,0,0,5.16,0c1.11,0,1.48.45,1.53,1.53a77.93,77.93,0,0,0,.83,9.68c.13.72.15,1.38-1,1.36C273.9,65.57,270.83,65.62,267.85,65.62Z" transform="translate(-3.44 -5.51)"/><path class="cls-2" d="M312,65.62c-4,1.14-5.86-.73-6.74-4.46a39.82,39.82,0,0,0-2.35-6.61c-.53-1.23-.26-1.55.94-1.46a.87.87,0,0,0,.21,0c4.14-.75,7,.49,8.72,4.65.89,2.21,2.54,4.11,3.88,6.12.31.47.91.86.55,1.47s-1,.25-1.56.27C314.45,65.65,313.23,65.62,312,65.62Z" transform="translate(-3.44 -5.51)"/><circle class="cls-5" cx="269.17" cy="38.14" r="17.91"/><path class="cls-1" d="M282.41,52.29v.19c-.08.19,0,.41-.13.61a1.86,1.86,0,0,1-1.34,1.16.38.38,0,0,0-.17.07h-.57a2.8,2.8,0,0,1-1.66-1c-2-2-4.06-4.06-6.08-6.1-.19-.19-.3-.18-.48,0-1.14,1.16-2.23,2.36-3.35,3.53-.86.89-1.68,1.81-2.58,2.66a1.94,1.94,0,0,1-3.33-1.05v-.63A3.29,3.29,0,0,1,263.85,50c.6-.51,1.13-1.1,1.71-1.65q1.15-1.08,2.29-2.19l2-2c.18-.18.19-.29,0-.49-.78-.83-1.64-1.58-2.42-2.41-.12-.12-.24-.24-.34-.37-.22-.28-.3-.31-.62-.16a3.83,3.83,0,0,0-2.29,3,3.65,3.65,0,0,1-.08.37.37.37,0,0,1-.32.31.45.45,0,0,1-.47-.19,1.32,1.32,0,0,1-.15-.38,5.53,5.53,0,0,1,.22-3.6,6.33,6.33,0,0,1,1-1.69,1.17,1.17,0,0,0,.22-.35,3.29,3.29,0,0,1,1.48-1.74c.1-.06.22-.12.23-.24a2.65,2.65,0,0,1,.84-1.42c.47-.52,1-1,1.48-1.48h.06c1,1,1.95,1.94,2.92,2.9a.28.28,0,0,1,0,.46,15.36,15.36,0,0,1-1.86,1.72,2.32,2.32,0,0,1-.76.38c-.23.06-.25.14-.08.32a9.05,9.05,0,0,0,.74.74c.73.63,1.38,1.34,2.07,2,.28.27.31.28.58,0s.85-.85,1.31-1.24a.45.45,0,0,0,.14-.53,4.5,4.5,0,0,1,2.42-5.35,4.33,4.33,0,0,1,2.25-.4.46.46,0,0,1,.44.3.47.47,0,0,1-.14.52c-.57.58-1.14,1.16-1.73,1.72a.69.69,0,0,0-.22.84,12,12,0,0,1,.37,1.38.48.48,0,0,0,.37.39c.51.14,1,.28,1.53.39a.56.56,0,0,0,.57-.18L281.24,38l.23-.22a.5.5,0,0,1,.55-.14.52.52,0,0,1,.28.5,4.52,4.52,0,0,1-4,4.76,4.57,4.57,0,0,1-1.69-.16.49.49,0,0,0-.6.21,8,8,0,0,1-.76.8c-.22.23-.22.3,0,.52.82.8,1.62,1.6,2.43,2.4,1,1,2.13,2,3.1,3.12.22.24.49.44.71.67A2.53,2.53,0,0,1,282.41,52.29Z" transform="translate(-3.44 -5.51)"/><path class="cls-2" d="M282.41,52.29s-.07,0-.07,0a2.31,2.31,0,0,0-.86-1.59l-6.21-6.19c-.43-.43-.43-.43,0-.85a7.67,7.67,0,0,0,.66-.68.61.61,0,0,1,.76-.21,4.25,4.25,0,0,0,4.52-1.43,4.19,4.19,0,0,0,1-3.06c0-.2,0-.4-.22-.49s-.39,0-.53.18l-1.31,1.32c-.19.19-.4.37-.57.58a.33.33,0,0,1-.39.11l-1.77-.44a.33.33,0,0,1-.27-.26c-.16-.62-.34-1.24-.51-1.86a.36.36,0,0,1,.14-.39l1.86-1.86c.15-.15.29-.32.19-.56s-.32-.22-.51-.22a4.42,4.42,0,0,0-4.57,3.72,3.9,3.9,0,0,0,.15,2,.4.4,0,0,1-.12.49c-.49.46-1,.93-1.45,1.41-.19.19-.32.24-.54,0-1-1-1.93-1.93-2.89-2.89-.09-.09-.2-.16-.16-.32s.19-.09.29-.11a2.05,2.05,0,0,0,.85-.46,18.24,18.24,0,0,0,1.74-1.61c.12-.13.12-.2,0-.32q-1.35-1.33-2.69-2.68c-.09-.09-.21-.15-.19-.31h13.42c.24,0,.27.06.27.28Q282.41,42.92,282.41,52.29Z" transform="translate(-3.44 -5.51)"/><path class="cls-2" d="M268.66,33.28c-.07.24-.28.36-.44.52a13,13,0,0,0-1.54,1.72,1,1,0,0,0-.24.64c0,.16-.1.22-.21.28a3.39,3.39,0,0,0-1.52,1.71,9.7,9.7,0,0,1-.81,1.27,5.62,5.62,0,0,0-.59,4.44l.05.15c.07.19.18.34.41.32s.31-.18.34-.39a3.94,3.94,0,0,1,2.6-3.39c.12,0,.2-.07.3.05.9,1,1.9,1.92,2.84,2.89.09.09.17.19.27.27s.12.17,0,.28l-2.82,2.72-1.95,1.86-1.73,1.67a2.79,2.79,0,0,0-.84,1.35c0,.06,0,.1-.1.1q0-9.07,0-18.14c0-.29.09-.32.33-.31Z" transform="translate(-3.44 -5.51)"/><path class="cls-2" d="M262.7,52.35c.09,0,.09.08.1.14a1.85,1.85,0,0,0,3.23.79c1.17-1.13,2.26-2.33,3.38-3.5q1.29-1.35,2.56-2.72c.18-.19.28-.17.45,0q3.28,3.3,6.58,6.59a1.86,1.86,0,0,0,1,.55c.06,0,.16,0,.17.11H262.95c-.22,0-.26-.05-.26-.26C262.71,53.49,262.7,52.92,262.7,52.35Z" transform="translate(-3.44 -5.51)"/><path class="cls-2" d="M280.76,54.32c0-.12.11-.11.18-.13a1.88,1.88,0,0,0,1.38-1.6c0-.06,0-.1.09-.11,0,.56,0,1.12,0,1.68,0,.14,0,.17-.16.16Z" transform="translate(-3.44 -5.51)"/><path class="cls-2" d="M265.49,51.92a.76.76,0,0,1-.77.81.82.82,0,0,1-.79-.82.77.77,0,0,1,.83-.79A.72.72,0,0,1,265.49,51.92Z" transform="translate(-3.44 -5.51)"/></svg>