<svg xmlns="http://www.w3.org/2000/svg" viewBox="0 0 145.43 107.22"><defs><style>.cls-1{fill:#010101;}.cls-2{fill:#fff;}</style></defs><title>store</title><g id="Layer_2" data-name="Layer 2"><g id="Layer_1-2" data-name="Layer 1"><path class="cls-1" d="M145.43,41.39V46.9c-1,4.57-4.24,6.43-8.54,6.41-2.85,0-3.5,1.24-3.49,3.74q.07,19.3,0,38.59c0,2.19.51,3.66,3,4.22,2.67.6,2.52,2.91,2.33,5s-1.7,2.32-3.47,2.32q-63.57,0-127.15,0c-1.55,0-3.1.09-3.39-2s-.6-4.27,1.64-5.11C9,99.14,9.27,97.3,9.26,95c0-12.29-.06-24.58,0-36.87,0-2.72-.56-4.43-3.57-5.28-4-1.11-5.22-3.28-5.37-7.4,0-.9.24-1.85-.35-2.68V40.7c1.13-1,2.54-.95,3.91-1,2.75,0,5.52.12,8.26,0A8.07,8.07,0,0,1,20,43.42c3.12,4.46,7.79,4.25,10.57-.46a6,6,0,0,1,6.18-3.26c3,.12,6,0,9,0,2.44,0,4.12.87,5,3.3,1,2.74,2.9,4.79,6.07,4.81s5-2.06,6.15-4.73a5,5,0,0,1,5.35-3.4c3.1.09,6.2,0,9.3,0,2.31,0,4,.87,4.81,3.13A10.19,10.19,0,0,0,84,45.53c3.52,4.55,9.19,4,11-1.42,1.21-3.59,3.26-4.58,6.65-4.41,3.09.15,6.2,0,9.3.06,2.15,0,3.29,1,3.74,3.18.79,3.93,2.92,6.08,5.79,6.3s5.79-1.77,6.94-5.62c.9-3,2.56-4,5.5-3.92s5.74,0,8.61,0C143,39.78,144.59,39.77,145.43,41.39Z"/><path class="cls-2" d="M71.48,100.66c-15.28,0-30.55-.06-45.83.06-2.46,0-3-.66-3-3q.19-18.43,0-36.87c0-2.47.67-3,3-3q46,.13,92,0c2.46,0,3,.65,3,3q-.19,18.43,0,36.87c0,2.47-.67,3-3,3C102.26,100.61,86.87,100.66,71.48,100.66Z"/><path class="cls-1" d="M71.69,15.88c-18.94,0-37.89-.05-56.83.06-2.5,0-3.54-.47-3.17-3.14C12.19,9.13,10.46,5,14.17,2A7.24,7.24,0,0,1,19,0q52.7.06,105.39,0a7.31,7.31,0,0,1,7.27,7.26c.15,8.58.15,8.58-8.3,8.59Z"/><path class="cls-1" d="M41.28,38.63c-2.18,0-4.36,0-6.53,0-1.29,0-2-.25-1.54-1.73,1.58-5.4,3.26-10.78,4.61-16.24.46-1.85,1.35-2.07,2.85-2.05,3.67,0,7.34.13,11,0,2.35-.1,2.32.92,1.87,2.68C52.18,26.63,50.82,32,49.69,37.4c-.3,1.42-1,1.22-1.88,1.23C45.63,38.64,43.46,38.63,41.28,38.63Z"/><path class="cls-1" d="M104.39,38.63c-8.47,0-8.45,0-10-8.63-.56-3.18-1.1-6.36-1.89-9.49-.45-1.77.27-1.91,1.66-1.9,3.79,0,7.58.12,11.36,0,1.84-.08,2.3,1,2.64,2.33,1.18,4.61,2.24,9.25,3.53,13.83,1.09,3.89,1.2,3.86-2.51,3.87Z"/><path class="cls-1" d="M9.83,38.63c-2.06,0-4.14-.12-6.19,0-2.4.17-2.92-.88-1.9-2.78,2.8-5.26,5.74-10.46,8.53-15.72.47-.89.87-1.52,1.94-1.52,3.55,0,7.11,0,10.66,0,1.42,0,1.39.77,1.08,1.79-1.7,5.7-4.12,11.16-5.42,17-.27,1.2-1.43,1.25-2.52,1.23C14,38.6,11.9,38.63,9.83,38.63Z"/><path class="cls-1" d="M65.15,38.63c.36-6,.91-11.46.92-17,0-2.67.78-3.29,3.25-3.09a77.17,77.17,0,0,0,8.23,0c1.77,0,2.36.72,2.45,2.45a124.32,124.32,0,0,0,1.32,15.44c.2,1.14.24,2.21-1.61,2.16C74.8,38.55,69.9,38.63,65.15,38.63Z"/><path class="cls-1" d="M135.6,38.63c-6.36,1.81-9.36-1.16-10.76-7.12A63.51,63.51,0,0,0,121.09,21c-.85-2-.42-2.47,1.51-2.33a1.39,1.39,0,0,0,.34,0c6.6-1.2,11.24.78,13.91,7.42,1.42,3.52,4,6.56,6.2,9.77.5.75,1.45,1.37.87,2.34s-1.65.4-2.49.43C139.49,38.69,137.54,38.63,135.6,38.63Z"/></g></g></svg>