<svg xmlns="http://www.w3.org/2000/svg" viewBox="0 0 56.17 39.17"><defs><style>.cls-1{fill:transparent;}.cls-2{fill:#d04a38;}.cls-3{fill:#a13f2a;}.cls-4{fill:#383938;}.cls-5{fill:#e45d48;}.cls-6{fill:#70bbb5;}.cls-7{fill:#4e4e50;}.cls-8{fill:#3b3b3c;}.cls-9{fill:#e45c47;}.cls-10{fill:#f69321;}</style></defs><title>car-icon</title><g id="Layer_2" data-name="Layer 2"><g id="Layer_1-2" data-name="Layer 1"><path class="cls-1" d="M28.09,39.17H.41c-.31,0-.41,0-.41-.39Q0,19.58,0,.37C0,0,.08,0,.38,0h55.4c.29,0,.38,0,.38.37q0,19.23,0,38.46c0,.31-.07.35-.36.35Z"/><path class="cls-2" d="M1.75,26.13q0-3.86,0-7.72a1.64,1.64,0,0,1,1-1.41,12.31,12.31,0,0,1,3.61-1.3,5.07,5.07,0,0,1,1-.2c.61,0,.81-.39,1-.9C9,12.39,9.78,10.19,10.57,8a9.18,9.18,0,0,1,2-3.17,5.4,5.4,0,0,1,1.24-.76,8.81,8.81,0,0,1,4.74-1.14c6.6,0,13.19,0,19.79,0a9.41,9.41,0,0,1,4,1,7,7,0,0,1,3.49,4.26c.84,2.23,1.57,4.5,2.33,6.76a.69.69,0,0,0,.64.5,18.92,18.92,0,0,1,4.08,1.13c.17.07.33.16.5.24A2.11,2.11,0,0,1,54.7,19c-.07,1.77,0,3.53,0,5.3q0,4.59,0,9.17c0,.13,0,.25,0,.38-.18-.13-.15-.33-.15-.51,0-1.94,0-3.87,0-5.81a3.85,3.85,0,0,0,0-.57c0-.08-.1,0,0,0s0,0,0,0a11.35,11.35,0,0,1-.17,1.62,12.85,12.85,0,0,1-.92,2.95,4.84,4.84,0,0,1-1.12,1.56,2.65,2.65,0,0,1-1.46.68c-3.11.47-6.22.93-9.36,1.25-.19,0-.47.14-.54-.21a2.55,2.55,0,0,1,1.21-.26c1.6-.23,1.18.07,1.8-1.39.15-.34.27-.7.4-1s0-.33-.23-.33H31.28c-.68,0-.68,0-.77.68-.15,1-.23,2.06-.39,3.08,0,.42-.3.53-.7.57a11.22,11.22,0,0,1-2.56,0c-.22,0-.43-.06-.49-.32-.16-.88-.22-1.76-.34-2.65,0-.27-.08-.54-.11-.81-.05-.47-.12-.53-.6-.53H12.21c-.21,0-.28.13-.21.32.26.67.51,1.34.79,2a.6.6,0,0,0,.52.34c.45.07.91.12,1.37.18a1.91,1.91,0,0,1,.75.17c-.09.22-.12.26-.42.24-.57,0-1.14-.11-1.71-.18q-3.73-.45-7.45-1a3,3,0,0,1-1.73-.68,4.57,4.57,0,0,1-1.27-1.81A13.31,13.31,0,0,1,1.78,26.3.41.41,0,0,0,1.75,26.13Z"/><path class="cls-3" d="M41,34.86c.49.22,1,0,1.47,0,1.27-.11,2.54-.31,3.8-.48l3.84-.55c.25,0,.5-.11.76-.13A2.47,2.47,0,0,0,52.27,33a.14.14,0,0,1,0,.15,3.13,3.13,0,0,1-1.18,1.57,32.79,32.79,0,0,1-5.64,1.17c-1.93.34-3.87.6-5.81.85q-3.21.41-6.44.65a62.81,62.81,0,0,1-6.92.17c-2-.08-4.09-.21-6.12-.42Q16.07,36.75,12,36.1c-1.86-.29-3.72-.63-5.57-1-.41-.07-.72-.34-1.12-.39A2.88,2.88,0,0,1,4.11,33.2a.15.15,0,0,1,0-.16,4,4,0,0,0,2.31.77c1.11.19,2.22.34,3.33.49l2.92.38c.69.09,1.38.17,2.08.24a.91.91,0,0,0,.66-.06c.13-.14.29-.1.44-.08,1.65.19,3.31.38,5,.52l3,.22a15.09,15.09,0,0,1,2.61.19c0,.13,0,.25.21.27a14.37,14.37,0,0,0,3.08,0c.29,0,.1-.33.26-.43a24.34,24.34,0,0,0,3.65-.11c1.68-.09,3.34-.26,5-.45.47-.05.94-.12,1.41-.14a1.13,1.13,0,0,0,.78,0A.12.12,0,0,1,41,34.86Z"/><path class="cls-4" d="M4.15,33a4.69,4.69,0,0,0,1.13,1.71c-.78.06-1.57,0-2.35,0a1.09,1.09,0,0,1-1.2-1.23c0-2.48,0-5,0-7.44.14.87.25,1.75.42,2.61a8.73,8.73,0,0,0,1.62,3.93C3.9,32.81,4,32.92,4.15,33Z"/><path class="cls-4" d="M51.15,34.76A5.2,5.2,0,0,0,52.27,33a8.26,8.26,0,0,0,2-4.4c.13-.6.2-1.21.38-1.81q0,3.52,0,7a1,1,0,0,1-1.06.91Z"/><path class="cls-5" d="M28.16,23.9c-4.2,0-8.39,0-12.59,0-.4,0-.6-.05-.73-.51a25.37,25.37,0,0,0-2.75-5.91c-.42-.7-.86-1.39-1.32-2.06-.19-.28-.1-.38.16-.5a22.45,22.45,0,0,1,5.32-1.46c1.4-.26,2.82-.41,4.24-.58.81-.1,1.63-.1,2.43-.2,1.42-.17,2.86-.1,4.28-.24.34,0,.69.1,1,.06a18.44,18.44,0,0,1,2.91,0c1.4,0,2.79.17,4.18.3,1.12.11,2.24.22,3.36.38a33.65,33.65,0,0,1,4.78,1,13.19,13.19,0,0,1,2.05.76c.27.13.29.24.12.48a37.58,37.58,0,0,0-2.8,4.78,21.16,21.16,0,0,0-1.31,3.27.51.51,0,0,1-.59.44C36.67,23.89,32.41,23.9,28.16,23.9Z"/><path class="cls-6" d="M46.8,15a.36.36,0,0,1-.37,0,13.45,13.45,0,0,0-4.84-1.7,62.59,62.59,0,0,0-9.95-1.16,73.29,73.29,0,0,0-9.51.17,56.18,56.18,0,0,0-8.08,1.15A11.93,11.93,0,0,0,10,15a.31.31,0,0,1-.32.06c-.14-.09,0-.21,0-.3.61-1.56,1.16-3.15,1.86-4.68a6.77,6.77,0,0,1,5-3.86A8.79,8.79,0,0,1,18.44,6c6.54,0,13.08,0,19.62,0a7.35,7.35,0,0,1,6.46,3.39,9.8,9.8,0,0,1,.8,1.85C45.81,12.54,46.3,13.78,46.8,15Z"/><path class="cls-7" d="M26.48,35.71a15.54,15.54,0,0,1-1.91,0c-.64-.08-1.28-.08-1.92-.12-2.08-.16-4.15-.34-6.22-.61-.32,0-.65-.06-1-.09l-2.3-.28a.52.52,0,0,1-.47-.37c-.27-.74-.56-1.47-.86-2.2-.12-.3,0-.37.27-.37q6.77,0,13.54,0c.37,0,.39.22.42.45.13,1.11.24,2.22.37,3.33A2.15,2.15,0,0,0,26.48,35.71Z"/><path class="cls-7" d="M40.21,35l-2.64.28c-.68.07-1.36.18-2,.22-1.7.1-3.39.29-5.1.27-.15,0-.36.09-.41-.17.15-1.22.29-2.44.43-3.66,0-.16.08-.24.24-.23H44.21c.53,0,.52,0,.34.48-.27.69-.55,1.39-.8,2.08a.51.51,0,0,1-.46.37l-2.3.28h-.09A.86.86,0,0,1,40.21,35Z"/><path class="cls-7" d="M18.74,30.12H12.19c-.5,0-.51,0-.37-.47a3,3,0,0,1,3-2.24c3.37.06,6.75,0,10.12,0,.6,0,.58-.09.62.56a14.14,14.14,0,0,0,.21,1.75c.07.34-.06.39-.35.38Z"/><path class="cls-7" d="M37.66,30.12c-2.16,0-4.31,0-6.47,0-.39,0-.57,0-.49-.49.11-.62.16-1.25.23-1.87,0-.24.11-.34.38-.34H42a3,3,0,0,1,2.6,2.48c0,.23-.09.2-.22.2H37.66Z"/><path class="cls-8" d="M50.9,24.59l-4,.43-2.82.31c-.2,0-.4,0-.6,0-.43,0-.87,0-1.05-.48a1.4,1.4,0,0,1,.47-1.69,22.08,22.08,0,0,1,6.45-2.67,3.47,3.47,0,0,1,1.53,0,.76.76,0,0,1,.14.53q0,1.5,0,3A.75.75,0,0,1,50.9,24.59Z"/><path class="cls-8" d="M5.79,20.53a3.41,3.41,0,0,1,1.82,0,22.47,22.47,0,0,1,6.19,2.64,1.41,1.41,0,0,1,.43,1.67c-.18.47-.63.52-1.05.48C12,25.25,10.73,25.13,9.5,25l-3.16-.33-.55-.08a.73.73,0,0,1-.14-.53q0-1.5,0-3A.75.75,0,0,1,5.79,20.53Z"/><path class="cls-9" d="M49.57,30.8A2.41,2.41,0,1,1,52,28.37,2.39,2.39,0,0,1,49.57,30.8Z"/><path class="cls-9" d="M6.78,30.8a2.42,2.42,0,0,1,0-4.83,2.48,2.48,0,0,1,2.43,2.4A2.39,2.39,0,0,1,6.78,30.8Z"/><path class="cls-7" d="M50.9,24.59q0-2,0-4.06a2.16,2.16,0,0,1,1.89,2c0,.4,0,.8,0,1.2a.47.47,0,0,1-.37.51A5.23,5.23,0,0,1,50.9,24.59Z"/><path class="cls-7" d="M5.79,20.53v4.06a1.58,1.58,0,0,1-.47,0c-1.71-.39-1.46-.27-1.42-1.87A2.13,2.13,0,0,1,5.79,20.53Z"/><path class="cls-2" d="M40.21,35l.67-.09C40.7,35.16,40.45,35,40.21,35Z"/><path class="cls-10" d="M49.36,22.95a1.39,1.39,0,0,1-1.44,1.39,1.42,1.42,0,0,1-1.41-1.44A1.45,1.45,0,0,1,48,21.5,1.41,1.41,0,0,1,49.36,22.95Z"/><path class="cls-10" d="M44.5,22.83a1.1,1.1,0,0,1,1.14,1.09,1.13,1.13,0,1,1-2.27,0A1.08,1.08,0,0,1,44.5,22.83Z"/><path class="cls-10" d="M8.74,24.34a1.4,1.4,0,0,1-1.41-1.43,1.42,1.42,0,1,1,1.41,1.43Z"/><path class="cls-10" d="M12.18,25.09A1.14,1.14,0,1,1,13.34,24,1.15,1.15,0,0,1,12.18,25.09Z"/><path class="cls-7" d="M49.57,30.21a1.76,1.76,0,0,1-1.79-1.8,1.82,1.82,0,0,1,1.82-1.83,1.85,1.85,0,0,1,1.81,1.87A1.82,1.82,0,0,1,49.57,30.21Z"/><path class="cls-7" d="M6.78,30.21A1.76,1.76,0,0,1,5,28.35a1.82,1.82,0,0,1,1.84-1.78,1.85,1.85,0,0,1,1.79,1.88A1.81,1.81,0,0,1,6.78,30.21Z"/></g></g></svg>