<svg xmlns="http://www.w3.org/2000/svg" viewBox="0 0 12.81 25.66"><defs><style>.cls-1{fill:transparent;}.cls-2{fill:#d3d3d3;}.cls-3{fill:#3d3d3d;}.cls-4{fill:#606161;}.cls-5{fill:#acabab;}.cls-6{fill:#transparent;}.cls-7{fill:#transparent;}.cls-8{fill:#transparent;}</style></defs><title>handyman</title><g id="Layer_2" data-name="Layer 2"><g id="Layer_1-2" data-name="Layer 1"><path class="cls-1" d="M12.8,13.75q0,5.85,0,11.7c0,.17,0,.21-.2.2H.2c-.17,0-.2,0-.2-.2Q0,12.83,0,.2C0,0,0,0,.2,0H12.6c.17,0,.21,0,.2.2q0,5.52,0,11.05c-.14,0-.11-.15-.12-.24a12,12,0,0,0-.35-2.09,3.6,3.6,0,0,0-1-1.78A1.49,1.49,0,0,0,11,6.88c-.48-.21-.79.07-1.07.37A3.56,3.56,0,0,0,9,9.45c0,.11,0,.18.15.18a.47.47,0,0,1,.39.26c.36.52.7,1.05,1.07,1.57a.59.59,0,0,1,.1.17A6.2,6.2,0,0,0,10.4,10c0-.13,0-.24.11-.28s.17.07.21.16A4.9,4.9,0,0,1,11,11.13a11.58,11.58,0,0,1,.11,1.72,13.21,13.21,0,0,1-.17,2.21,1,1,0,0,0,.05.59.79.79,0,0,0,.76.55.93.93,0,0,0,.72-.71c.11-.51.14-1,.2-1.53a.41.41,0,0,1,.05-.19A0,0,0,0,1,12.8,13.75Z"/><path class="cls-2" d="M12.76,13.76c-.06.57-.1,1.14-.2,1.71a1,1,0,0,1-.93.81,1,1,0,0,1-.77-1,15.12,15.12,0,0,0,.17-2,10.72,10.72,0,0,0-.28-3,3.11,3.11,0,0,0-.11-.33c0-.06,0-.13-.14-.09s-.09.09-.06.17a6.35,6.35,0,0,1,.35,1.82c-.1,0-.13-.12-.17-.18-.39-.56-.77-1.12-1.15-1.69-.1-.15-.2-.25-.4-.22s-.17,0-.16-.11a3.52,3.52,0,0,1,1.33-2.73.75.75,0,0,1,.88,0A2.15,2.15,0,0,1,12.05,8a8,8,0,0,1,.66,2.6,2.46,2.46,0,0,0,.1.7v.3a1.25,1.25,0,0,0,0,.55v.65a2.12,2.12,0,0,0,0,.51A3,3,0,0,1,12.76,13.76Z"/><path class="cls-3" d="M12.8,12.1a.65.65,0,0,1,0-.55Z"/><path class="cls-4" d="M12.76,13.26a1,1,0,0,1,0-.51v.5S12.78,13.28,12.76,13.26Z"/><path class="cls-5" d="M12.76,13.26h0v.5h0Z"/><path class="cls-2" d="M8.39,21.07c0,1.16,0,2.32,0,3.47,0,.19-.06.24-.24.23H6.23A.48.48,0,0,1,5.78,24s.06-.1.1-.11c.25-.08.22-.28.22-.48,0-1.63,0-3.27,0-4.9a33.05,33.05,0,0,0-.27-3.61c-.07-.75-.22-1.5-.25-2.26A6.48,6.48,0,0,1,5.82,11a7.5,7.5,0,0,1,.28-1,.26.26,0,0,1,.3-.2L9,9.91a.28.28,0,0,1,.26.14l1.44,2.1a.51.51,0,0,1,.08.31,13.9,13.9,0,0,1-.16,2.66,1.15,1.15,0,0,0,.6,1.24.28.28,0,0,1,.15.28q0,4,0,7.95c0,.14,0,.21-.18.21H9.33c-.37,0-.59-.19-.59-.5,0-.13,0-.28.14-.33.29-.13.23-.37.23-.59,0-2,0-3.93,0-5.9,0-.22-.06-.25-.26-.22-.46.08-.46.07-.46.54v3.27Z"/><path class="cls-2" d="M6.85,7.13c-.11.28-.23.56-.33.85a9.19,9.19,0,0,0-.38,1.55.37.37,0,0,1,0,.14,5,5,0,0,0-.66,2.2c0,.23-.09.29-.33.24a14.34,14.34,0,0,0-2-.13C3,12,3,12,3,12.12c0,.25,0,.5,0,.75a.69.69,0,0,1-.67.72.69.69,0,0,1-.66-.71c0-.28,0-.57,0-.85a.26.26,0,0,0-.12-.24.87.87,0,0,1,0-1.44.6.6,0,0,0,0-.77A1.52,1.52,0,0,1,1.42,7c.08-.05.16-.17.26-.09s0,.16,0,.24c-.1.42-.21.83.12,1.2a.69.69,0,0,0,.76.29A.89.89,0,0,0,3.15,8,1.71,1.71,0,0,0,3,7.17C3,7.1,2.93,7,3,7s.16,0,.22.07a1.52,1.52,0,0,1-.05,2.54c-.07,0-.19,0-.19.17s0,.37,0,.55.1,0,.15,0H4.64A.35.35,0,0,0,5,10.11l1.4-2.39A1.87,1.87,0,0,1,6.85,7.13Z"/><path class="cls-2" d="M10.48,1.77c-1.39-.63-2.48-.59-3,.08a5.6,5.6,0,0,1,1.15-.33,3,3,0,0,1,2.17.72c.13.1.13.27.16.41a2.78,2.78,0,0,1,0,1.07c0,.05,0,.15-.07.14-.24,0-.19.13-.21.26a2.24,2.24,0,0,1-4.34.65,2.29,2.29,0,0,1-.1-1.25c0-.13,0-.14-.14-.17s-.35,0-.36-.26.06-.42.38-.37.22-.07.27-.19A2.55,2.55,0,0,1,7.73,1a2.6,2.6,0,0,1,2.7.66A.78.78,0,0,1,10.48,1.77Z"/><path class="cls-2" d="M9.52,6.66A4.26,4.26,0,0,0,8.33,9.14s0,.07,0,.1c-.05.44-.05.44-.51.43h-.9c-.06,0-.16,0-.13-.1A7.14,7.14,0,0,1,7.6,7.13a.8.8,0,0,1,.74-.44C8.71,6.7,9.08,6.66,9.52,6.66Z"/><path class="cls-6" d="M6.35,10.31a.33.33,0,0,1,.34.33.34.34,0,0,1-.67,0A.33.33,0,0,1,6.35,10.31Z"/><path class="cls-7" d="M8.29,10.35a.31.31,0,1,1,0,.63.32.32,0,1,1,0-.63Z"/><path class="cls-8" d="M2.32,13.26A.3.3,0,0,1,2,12.94a.28.28,0,0,1,.31-.29.27.27,0,0,1,.29.3C2.61,13.15,2.49,13.24,2.32,13.26Z"/><path class="cls-1" d="M8.42,5.82A1.87,1.87,0,0,1,6.65,3.59c0-.13.06-.17.21-.16l3.1.33c.34,0,.34,0,.31.38A1.84,1.84,0,0,1,8.42,5.82Z"/></g></g></svg>